<?xml version="1.0" encoding="utf-8"?>
<!-- Generator: Adobe Illustrator 19.0.0, SVG Export Plug-In . SVG Version: 6.00 Build 0)  -->
<svg version="1.1" id="图层_1" xmlns="http://www.w3.org/2000/svg" xmlns:xlink="http://www.w3.org/1999/xlink" x="0px" y="0px"
	 viewBox="-167 166 24 30" style="enable-background:new -167 166 24 30;" xml:space="preserve">
<g>
	<path d="M-158,186.5c-0.2-0.1-0.3-0.3-0.3-0.5l0.5-6.1l-4.6-4c-0.1-0.1-0.2-0.3-0.1-0.5c0.1-0.2,0.2-0.3,0.4-0.4l21.8-2.8
		c0.2,0,0.4,0.1,0.5,0.2c0.1,0.2,0.1,0.4,0,0.5l-9.3,14.5c-0.1,0.1-0.2,0.2-0.4,0.2c-0.2,0-0.3,0-0.4-0.1l-4.9-5l-2.5,3.7
		C-157.5,186.5-157.8,186.6-158,186.5C-158,186.5-158,186.5-158,186.5z M-160.9,175.9l3.9,3.4c0.1,0.1,0.2,0.3,0.2,0.4l-0.3,4.4
		l1.8-2.7c0.1-0.1,0.2-0.2,0.4-0.2c0.2,0,0.3,0,0.4,0.2l4.9,5l8.4-13.1L-160.9,175.9z"/>
	<path d="M-155.2,182.3c-0.1,0-0.2-0.1-0.2-0.2c-0.1-0.2-0.1-0.5,0.2-0.7l9.5-5.9l-11.4,4.7c-0.3,0.1-0.5,0-0.7-0.3
		c-0.1-0.3,0-0.5,0.3-0.7l17-7c0.2-0.1,0.5,0,0.6,0.2c0.1,0.2,0,0.5-0.2,0.7l-14.6,9C-154.8,182.3-155,182.3-155.2,182.3z"/>
	<path d="M-158,186.5c-0.1,0-0.2-0.1-0.2-0.2c-0.1-0.2-0.1-0.5,0.2-0.7l4.3-2.5c0.2-0.1,0.5-0.1,0.7,0.2c0.1,0.2,0.1,0.5-0.2,0.7
		l-4.3,2.5C-157.7,186.6-157.9,186.6-158,186.5z"/>
	<g>
		<g>
			<path d="M-167.9,180.9c-0.1,0-0.2-0.1-0.3-0.3c-0.1-0.3-0.3-0.6-0.4-0.9c-0.1-0.3,0-0.5,0.3-0.7c0.3-0.1,0.5,0,0.7,0.3
				c0.1,0.3,0.3,0.6,0.4,0.9c0.1,0.3,0,0.5-0.2,0.7C-167.6,181-167.8,181-167.9,180.9z"/>
			<path d="M-162.9,186.6c-0.4-0.2-0.9-0.4-1.3-0.7c-0.2-0.2-0.3-0.5-0.1-0.7c0.2-0.2,0.5-0.3,0.7-0.1c0.4,0.2,0.7,0.4,1.1,0.6
				c0,0,0,0,0,0l0.2,0.1c0.3,0.1,0.4,0.4,0.3,0.6c-0.1,0.3-0.4,0.4-0.6,0.3L-162.9,186.6C-162.9,186.6-162.9,186.6-162.9,186.6z
				 M-165.8,184.3c-0.1,0-0.1-0.1-0.2-0.1c-0.3-0.4-0.7-0.9-1-1.3c-0.1-0.2-0.1-0.5,0.2-0.7c0.2-0.1,0.5-0.1,0.7,0.2
				c0.3,0.5,0.6,0.9,0.9,1.2c0.2,0.2,0.1,0.5-0.1,0.7C-165.5,184.4-165.7,184.4-165.8,184.3z"/>
			<path d="M-160.3,187.1c-0.2-0.1-0.3-0.3-0.3-0.5c0-0.3,0.2-0.5,0.5-0.5c0.3,0,0.6,0,0.9-0.1c0.3,0,0.5,0.2,0.6,0.4
				c0,0.3-0.2,0.5-0.4,0.6c-0.4,0-0.7,0.1-1.1,0.1C-160.2,187.1-160.3,187.1-160.3,187.1z"/>
		</g>
	</g>
</g>
</svg>
